<?xml version="1.0" standalone="no"?>
<!DOCTYPE svg PUBLIC "-//W3C//DTD SVG 20010904//EN"
 "http://www.w3.org/TR/2001/REC-SVG-20010904/DTD/svg10.dtd">
<svg version="1.0" xmlns="http://www.w3.org/2000/svg"
 width="464.000000pt" height="464.000000pt" viewBox="0 0 464.000000 464.000000"
 preserveAspectRatio="xMidYMid meet">
<metadata>
Created by potrace 1.14, written by Peter Selinger 2001-2017
</metadata>
<g transform="translate(0.000000,464.000000) scale(0.100000,-0.100000)"
fill="#000000" stroke="none">
<path d="M2072 4352 c-7 -9 -10 -12 -8 -6 4 8 -11 11 -44 10 -28 0 -50 -4 -50
-7 0 -3 -21 -4 -47 -3 -26 2 -53 -2 -60 -8 -8 -6 -13 -6 -13 -1 0 5 -7 10 -15
10 -8 0 -15 -4 -15 -9 0 -5 -11 -6 -25 -4 -13 3 -27 2 -29 -2 -2 -4 -19 -6
-38 -6 -18 1 -39 -3 -45 -9 -9 -6 -13 -6 -13 3 0 9 -4 9 -12 3 -7 -6 -23 -9
-35 -8 -13 1 -23 -1 -23 -5 0 -4 -10 -6 -22 -6 -13 1 -27 0 -33 -3 -14 -8 -36
-12 -67 -14 -16 -1 -28 -5 -28 -8 0 -4 -14 -9 -30 -12 -68 -13 -180 -50 -180
-60 0 -5 -4 -6 -9 -2 -11 6 -121 -44 -133 -60 -4 -5 -8 -6 -8 -2 0 9 -87 -39
-116 -65 -11 -10 -24 -18 -30 -18 -5 0 -21 -10 -37 -23 -15 -12 -41 -33 -59
-47 -53 -42 -205 -202 -208 -218 0 -4 -8 -16 -18 -27 -18 -21 -56 -77 -58 -85
-3 -15 -19 -46 -31 -60 -7 -8 -12 -18 -11 -21 2 -4 -6 -16 -16 -28 -11 -12
-16 -21 -11 -21 4 0 1 -7 -6 -16 -7 -9 -15 -25 -16 -37 -2 -12 -9 -25 -16 -29
-6 -4 -9 -8 -4 -8 4 0 1 -13 -7 -29 -9 -16 -12 -31 -9 -35 4 -3 2 -6 -4 -6 -5
0 -10 -7 -11 -15 -1 -8 -3 -22 -4 -30 -1 -8 -5 -15 -10 -15 -5 0 -8 -6 -7 -12
1 -7 -1 -20 -4 -28 -4 -8 -8 -24 -10 -35 -2 -11 -7 -28 -11 -37 -4 -9 -5 -22
-1 -28 3 -5 1 -10 -4 -10 -6 0 -10 -3 -10 -7 1 -5 0 -10 -1 -13 -1 -3 -3 -14
-5 -25 -2 -11 -7 -36 -11 -55 -4 -19 -7 -45 -8 -57 0 -13 -3 -23 -6 -23 -4 0
-6 -16 -5 -35 1 -19 -1 -35 -5 -35 -4 0 -8 -17 -9 -37 -1 -21 -4 -54 -6 -73
-3 -19 -8 -75 -11 -125 -3 -52 -11 -93 -17 -97 -9 -6 -8 -8 2 -8 10 0 11 -3 2
-14 -7 -8 -8 -17 -3 -20 5 -3 7 -22 5 -43 -7 -60 -6 -67 2 -87 5 -11 5 -17 -1
-14 -9 6 -10 -140 0 -149 3 -3 1 -14 -5 -25 -5 -10 -7 -24 -3 -30 12 -18 10
-88 -1 -88 -6 0 -6 -3 0 -8 6 -4 11 -18 12 -32 2 -57 13 -187 18 -220 3 -19 6
-52 7 -73 1 -21 4 -40 8 -42 4 -2 6 -20 5 -40 -1 -19 2 -35 5 -35 4 0 7 -14 8
-30 0 -17 6 -46 12 -65 6 -19 9 -39 6 -44 -4 -5 -1 -11 5 -13 7 -2 13 -17 15
-34 5 -46 9 -68 18 -82 4 -6 9 -22 12 -34 9 -39 19 -68 35 -103 6 -12 11 -28
12 -36 2 -9 11 -28 21 -44 10 -15 13 -24 7 -21 -6 4 1 -14 17 -41 16 -26 35
-63 43 -80 7 -18 17 -33 21 -33 5 0 8 -6 8 -13 0 -7 9 -23 19 -34 11 -12 17
-24 14 -27 -4 -3 -1 -6 6 -6 6 0 16 -11 21 -25 5 -14 17 -28 25 -31 8 -4 15
-12 15 -18 0 -13 170 -190 170 -178 0 4 5 -1 11 -10 5 -10 16 -18 23 -18 8 0
16 -7 19 -14 3 -8 21 -23 39 -32 18 -9 35 -20 38 -23 5 -6 96 -56 137 -76 13
-5 23 -14 23 -18 0 -5 4 -6 8 -3 5 3 21 -2 36 -9 16 -8 32 -12 37 -9 5 3 9 1
9 -5 0 -9 22 -20 42 -21 4 -1 37 -12 73 -25 36 -13 65 -22 65 -20 0 2 15 -1
33 -6 52 -16 80 -22 107 -23 14 0 28 -4 31 -9 3 -4 31 -9 62 -10 31 -1 57 -5
57 -8 0 -3 21 -6 48 -8 26 -1 51 -6 56 -11 5 -5 19 -5 32 0 13 5 24 6 24 2 0
-4 21 -8 48 -9 107 -2 153 -7 158 -15 3 -4 11 -5 17 -1 20 12 37 12 37 0 0 -7
5 -5 10 3 5 8 10 10 10 4 0 -8 11 -9 34 -4 19 4 37 5 40 2 8 -7 176 -5 183 2
3 3 14 1 24 -4 10 -6 20 -7 23 -2 6 9 48 8 64 -2 7 -4 12 -4 12 1 0 4 30 9 68
10 140 3 222 8 222 13 0 3 15 6 33 6 66 3 112 8 121 12 6 3 26 7 45 9 63 7 96
11 96 13 0 3 42 12 68 13 15 1 27 5 27 8 0 4 12 9 28 12 72 14 182 50 182 60
0 5 4 6 9 2 10 -6 203 84 209 98 2 4 10 7 18 7 8 0 14 5 14 11 0 5 4 8 9 5 4
-3 16 3 26 14 10 11 22 17 26 14 5 -3 9 2 9 11 0 9 5 13 10 10 6 -3 13 1 16 9
3 9 11 16 16 16 20 0 208 187 208 207 0 8 5 11 10 8 6 -3 10 -2 10 3 0 5 15
29 34 53 18 24 34 49 35 54 1 6 9 19 19 31 9 11 18 27 20 35 2 7 8 17 14 20 6
4 7 12 4 18 -4 6 -2 11 3 11 6 0 11 7 11 15 0 8 5 15 11 15 5 0 7 5 4 10 -3 6
-1 10 5 10 6 0 9 4 5 9 -3 5 1 15 8 23 7 7 12 20 12 28 0 8 3 18 8 21 5 3 10
15 12 25 2 10 4 20 5 22 2 1 3 5 5 10 1 4 5 16 9 27 29 75 34 93 29 99 -4 3
-1 6 4 6 6 0 10 8 9 18 -2 9 1 24 5 32 14 27 30 111 23 122 -5 7 -2 8 6 3 10
-6 12 -3 8 13 -4 12 -2 24 2 27 5 3 7 16 5 30 -1 14 1 25 5 25 4 0 6 14 5 30
-1 17 1 33 6 35 4 3 6 21 5 41 -1 20 2 38 6 40 3 2 5 16 2 29 -2 14 -1 25 3
25 5 0 8 28 8 63 0 34 1 66 4 71 2 5 5 40 6 78 2 38 5 72 8 75 4 3 2 14 -3 24
-7 11 -7 20 0 24 6 3 6 15 0 29 -5 13 -6 27 -2 30 9 9 9 76 0 76 -4 0 -5 6 -2
13 8 22 11 107 4 112 -6 3 -6 44 0 70 1 6 1 12 0 15 -4 7 -10 83 -12 163 -1
37 -5 67 -8 67 -3 0 -6 10 -7 23 -3 83 -7 117 -13 117 -4 0 -6 18 -6 40 1 22
-2 40 -7 40 -4 0 -7 6 -6 13 1 6 -2 35 -6 62 -5 28 -8 53 -7 58 1 4 -2 7 -6 7
-9 0 -12 17 -12 58 0 12 -4 22 -8 22 -5 0 -9 6 -9 13 -1 25 -12 69 -21 80 -4
7 -8 19 -7 27 0 8 -3 18 -8 21 -5 3 -9 12 -10 20 -2 8 -6 20 -10 27 -5 6 -6
16 -3 21 4 5 1 11 -4 13 -6 2 -12 10 -13 18 -5 27 -41 100 -50 100 -4 0 -5 5
-2 10 3 6 -1 17 -9 26 -9 8 -16 22 -16 30 0 8 -5 14 -11 14 -5 0 -7 5 -4 10 3
6 1 10 -4 10 -6 0 -11 5 -11 11 0 10 -56 98 -70 109 -3 3 -16 20 -29 38 -27
38 -171 185 -171 174 0 -4 -5 1 -11 11 -5 9 -16 17 -23 17 -8 0 -16 7 -19 14
-3 8 -21 23 -38 32 -18 9 -39 23 -47 30 -7 8 -17 12 -22 9 -4 -3 -11 2 -14 11
-3 8 -10 13 -15 10 -5 -4 -11 -3 -13 1 -3 8 -133 73 -153 78 -5 1 -30 10 -55
21 -25 10 -52 19 -60 18 -8 0 -18 5 -22 12 -4 6 -19 10 -33 9 -14 -2 -25 1
-25 6 0 5 -3 8 -7 8 -5 -1 -10 0 -13 1 -3 1 -14 3 -25 5 -11 2 -31 6 -45 10
-14 3 -34 8 -45 9 -11 2 -20 4 -20 5 0 2 -39 8 -93 15 -12 1 -25 6 -29 9 -3 4
-12 2 -19 -4 -8 -7 -14 -7 -19 1 -3 5 -21 10 -39 10 -17 0 -38 6 -45 13 -10 8
-12 8 -7 0 4 -8 -1 -11 -14 -10 -11 1 -20 4 -20 7 0 3 -30 6 -67 7 -104 2
-210 10 -222 17 -5 4 -12 2 -15 -2 -3 -5 -18 -8 -33 -5 -57 8 -95 8 -106 1 -6
-4 -15 -4 -21 -1 -14 9 -86 10 -86 2 0 -8 -20 -6 -35 3 -6 4 -17 3 -25 -2 -9
-5 -19 -5 -27 2 -9 7 -13 7 -13 -1 0 -9 -5 -9 -20 -1 -14 7 -20 7 -20 0 0 -11
-22 -10 -30 2 -3 4 -11 -1 -18 -10z"/>
</g>
</svg>
